PathFileType	4	(X/Y/Z)	C:\Documents and Settings\rtobon\Desktop\NewMocap\New\NoT\ActorF_TPose.trc
DataRate	CameraRate	NumFrames	NumMarkers	Units	OrigDataRate	OrigDataStartFrame	OrigNumFrames
120.00	120.00	       7	49	mm	120.00	163	       260
Frame#	Time	Root			LtFtHip			LtBkHip			RtFtHip			RtBkHip			Spine1			Spine2			Spine3			SpineOffsetLow			SpineOffsetHigh			LtCtChest			RtCtChest			LtChest			RtChest			LtShoulder			LtBicep			LtElbow			LtForeArm			LtWrist			LtPinky			LtThumb			LtMiddFing			RtShoulder			RtBicep			RtElbow			RtForeArm			RtWrist			RtPinky			RtThumb			RtMiddFing			LtThigh			LtKnee			LtCalf			LtAnkle			LtHeel			LtBall			LtToe			RtThigh			RtKnee			RtCalf			RtAnkle			RtHeel			RtBall			RtToe			TopHead			LfFtHead			LtBkHead			RtFtHead			RtBkHead			
		X1	Y1	Z1	X2	Y2	Z2	X3	Y3	Z3	X4	Y4	Z4	X5	Y5	Z5	X6	Y6	Z6	X7	Y7	Z7	X8	Y8	Z8	X9	Y9	Z9	X10	Y10	Z10	X11	Y11	Z11	X12	Y12	Z12	X13	Y13	Z13	X14	Y14	Z14	X15	Y15	Z15	X16	Y16	Z16	X17	Y17	Z17	X18	Y18	Z18	X19	Y19	Z19	X20	Y20	Z20	X21	Y21	Z21	X22	Y22	Z22	X23	Y23	Z23	X24	Y24	Z24	X25	Y25	Z25	X26	Y26	Z26	X27	Y27	Z27	X28	Y28	Z28	X29	Y29	Z29	X30	Y30	Z30	X31	Y31	Z31	X32	Y32	Z32	X33	Y33	Z33	X34	Y34	Z34	X35	Y35	Z35	X36	Y36	Z36	X37	Y37	Z37	X38	Y38	Z38	X39	Y39	Z39	X40	Y40	Z40	X41	Y41	Z41	X42	Y42	Z42	X43	Y43	Z43	X44	Y44	Z44	X45	Y45	Z45	X46	Y46	Z46	X47	Y47	Z47	X48	Y48	Z48	X49	Y49	Z49	

163	1.350	15.68390	1103.50830	1285.28516	110.02855	1009.94293	1562.71851	111.98121	1069.86279	1286.02393	-159.92661	1030.26855	1532.22192	-111.82130	1069.33826	1270.16113	18.65511	1276.94067	1279.84509	18.78706	1412.00720	1284.10535	8.92504	1530.00342	1338.56360	-65.09893	1197.55200	1278.85376	147.66527	1356.66089	1288.67334	20.28181	1376.25293	1594.15735	-28.96173	1401.85352	1581.68042	102.05945	1451.08179	1567.69885	-99.94832	1450.17810	1558.67505	166.19911	1544.17615	1401.85278	338.30032	1520.53662	1439.10474	491.28137	1498.75708	1409.26819	599.32422	1491.64111	1460.47400	735.33093	1473.47241	1483.08203	790.42236	1419.29614	1448.34082	760.57635	1451.25452	1556.65161	793.43909	1470.03479	1488.58203	-165.13960	1553.09204	1432.81396	-343.27936	1504.61145	1412.05188	-445.90225	1488.16956	1397.39526	-595.64642	1472.78491	1440.26086	-711.04968	1456.85474	1452.70459	-775.21826	1407.94360	1428.83887	-756.35046	1452.77246	1528.39832	-784.78064	1459.03113	1462.39075	215.21977	737.63580	1466.87207	204.37585	578.15393	1416.30225	225.93042	336.95132	1348.13220	201.23389	147.69745	1340.09534	133.20537	51.14828	1269.97717	222.26697	55.08738	1444.07056	172.92720	46.42630	1542.70557	-253.34558	776.81873	1456.09827	-246.83252	551.67523	1432.05640	-269.74045	403.50870	1374.99585	-247.49893	151.51569	1351.52710	-173.79140	51.99245	1263.72827	-276.98892	53.35953	1437.58960	-222.06984	54.26303	1529.31067	-15.33023	1781.63293	1463.18933	53.92403	1717.29346	1591.87244	71.30212	1655.94800	1414.59241	-68.25478	1704.38281	1581.13220	-76.94460	1637.99524	1409.17529	
164	1.358	15.68390	1103.50830	1285.28516	110.02855	1009.94293	1562.71851	112.01557	1069.98279	1286.07031	-159.97743	1030.29016	1532.20129	-111.91239	1069.16870	1270.10095	18.65511	1276.94067	1279.84509	18.72811	1411.97754	1284.32422	8.63046	1529.98047	1338.38501	-65.32699	1197.54846	1278.94556	147.69099	1356.72046	1288.77344	19.56172	1374.41980	1593.99951	-29.05925	1401.79858	1581.76086	102.02270	1451.07703	1567.75049	-99.99149	1450.22388	1558.67761	166.14806	1544.26379	1401.64697	338.43362	1520.71130	1438.87866	491.28299	1499.02686	1409.22729	599.25134	1491.84436	1460.36682	735.35065	1473.62744	1483.10876	790.31757	1419.48010	1448.14307	760.60492	1451.62830	1556.71875	793.38727	1470.22205	1488.49487	-165.28032	1553.30981	1432.93213	-343.27936	1504.61145	1412.05188	-445.84824	1488.21130	1397.36609	-595.68402	1472.93335	1440.19556	-710.90240	1456.90198	1452.85608	-775.15472	1408.01563	1428.78052	-756.42505	1452.79211	1528.40393	-784.78668	1459.00549	1462.30652	215.23981	737.66632	1466.82581	204.33513	578.14606	1416.37952	225.95782	336.97943	1348.08582	201.20718	147.54115	1340.06860	133.22034	51.21134	1270.10327	222.16444	55.11515	1443.96558	172.92720	46.42630	1542.70557	-253.54305	776.96558	1456.22742	-246.87836	551.60870	1432.03003	-269.74008	403.41092	1374.84338	-247.39520	151.78899	1351.17517	-173.69159	52.01495	1263.58264	-276.99591	53.40060	1437.54224	-222.06984	54.26303	1529.31067	-15.34881	1781.64673	1463.17419	53.97465	1717.05505	1591.71973	71.30685	1655.98364	1414.54517	-68.32124	1704.37537	1581.12585	-77.06412	1638.17578	1409.17517	
165	1.367	15.59601	1103.36011	1285.34668	110.06396	1009.95129	1562.91577	112.04971	1070.02148	1285.98279	-160.04843	1030.21094	1532.54883	-112.11068	1069.22229	1270.14075	18.78113	1277.07080	1279.87915	18.53774	1411.90625	1284.11963	8.63046	1529.98047	1338.38501	-65.35722	1197.50635	1278.84180	147.69099	1356.72046	1288.77344	19.44329	1374.44446	1594.05579	-29.00797	1401.82764	1581.83057	101.94580	1451.16296	1567.68091	-99.96584	1450.24426	1558.61206	166.13515	1544.33447	1401.67297	338.43958	1520.83862	1438.92932	491.28101	1499.06628	1409.12244	599.08087	1492.17554	1459.93408	735.05890	1474.00549	1482.98938	790.31757	1419.48010	1448.14307	760.56805	1452.23767	1556.97388	793.24780	1470.61536	1488.38062	-165.31601	1553.31177	1432.89807	-343.30103	1504.63086	1412.05164	-445.84885	1488.36658	1397.35852	-595.79688	1472.93628	1440.24121	-711.03857	1456.99707	1452.63525	-775.58344	1408.16089	1429.08008	-756.28131	1452.90735	1528.33142	-784.88306	1459.12402	1462.39819	215.18341	737.62036	1466.91345	204.36511	578.35602	1416.43140	225.93042	336.95132	1348.13220	201.34399	147.80949	1339.93164	133.22034	51.21134	1270.10327	222.14627	55.07733	1444.03455	173.00047	46.44478	1542.72778	-253.54305	776.96558	1456.22742	-246.87836	551.60870	1432.03003	-269.74008	403.41092	1374.84338	-247.39520	151.78899	1351.17517	-173.79170	52.06778	1263.64050	-277.03555	53.41298	1437.55530	-222.06984	54.26303	1529.31067	-15.37862	1781.65149	1463.16772	53.96045	1717.02051	1591.65808	71.32587	1656.00818	1414.48352	-68.32124	1704.37537	1581.12585	-76.97633	1638.04651	1409.09912	
166	1.375	15.59601	1103.36011	1285.34668	110.04245	1009.93225	1562.94373	111.89679	1069.95605	1286.15796	-160.06764	1030.26868	1532.51855	-112.20996	1069.59827	1270.01331	18.64994	1277.15796	1279.84509	18.53774	1411.90625	1284.11963	8.63046	1529.98047	1338.38501	-65.39832	1197.54016	1279.09497	147.69099	1356.72046	1288.77344	19.40485	1374.47681	1594.05725	-29.00797	1401.82764	1581.83057	101.95368	1451.20251	1567.62183	-99.99361	1450.27869	1558.58740	166.17386	1544.30457	1401.80469	338.41272	1520.92981	1438.96338	491.41110	1499.31580	1408.92297	598.90387	1492.23901	1459.90381	734.96741	1474.31409	1482.89734	790.29773	1419.68237	1448.12488	760.40442	1452.41150	1556.99451	793.34747	1470.92932	1488.38513	-165.34642	1553.35779	1432.84790	-343.30103	1504.63086	1412.05164	-445.82721	1488.37256	1397.25684	-595.83966	1473.18066	1440.29944	-711.00232	1457.15686	1452.70410	-775.52917	1408.36328	1429.21448	-756.26294	1452.94373	1528.25916	-784.85883	1459.14026	1462.36890	215.13364	737.58942	1466.93811	204.36511	578.35602	1416.43140	225.87108	336.93820	1348.12134	201.41406	147.80400	1340.01416	133.20792	51.09728	1270.04077	222.13048	55.10714	1443.97363	173.00047	46.44478	1542.72778	-253.54305	776.96558	1456.22742	-246.87836	551.60870	1432.03003	-269.72141	403.36282	1374.91516	-247.36140	151.67992	1351.33716	-173.80226	52.03271	1263.68640	-276.98892	53.35953	1437.58960	-222.06984	54.26303	1529.31067	-15.38998	1781.66711	1463.10742	53.91647	1717.03711	1591.68127	71.23548	1656.10730	1414.37207	-68.36816	1704.35095	1581.10217	-76.97633	1638.04651	1409.09912	
167	1.383	15.59601	1103.36011	1285.34668	110.02986	1009.91663	1563.03979	111.89679	1069.95605	1286.15796	-160.04843	1030.21094	1532.54883	-112.15775	1069.47949	1270.01733	18.61788	1277.11609	1279.74255	18.53774	1411.90625	1284.11963	8.33543	1530.02429	1338.26733	-65.35332	1197.46350	1279.23804	147.70210	1356.84253	1288.79956	19.25842	1374.54724	1594.03503	-29.05925	1401.79858	1581.76086	101.76442	1451.35413	1567.63220	-99.99361	1450.27869	1558.58740	165.96498	1544.38940	1401.53479	338.38016	1521.02881	1438.89282	491.36154	1499.40027	1409.01099	598.90198	1492.28064	1459.78943	734.97430	1474.41125	1482.87366	790.15826	1419.99805	1447.93665	760.41364	1452.49390	1556.87244	793.14960	1471.30554	1488.46704	-165.32190	1553.43579	1432.80408	-343.32443	1504.68823	1412.06042	-445.87677	1488.38513	1397.36780	-595.83966	1473.18066	1440.29944	-711.00232	1457.15686	1452.70410	-775.52917	1408.36328	1429.21448	-756.17889	1453.08069	1528.27368	-784.87451	1459.28491	1462.35620	215.13364	737.58942	1466.93811	204.23454	578.16510	1416.37988	225.93042	336.95132	1348.13220	201.51744	147.97498	1340.09399	133.22034	51.21134	1270.10327	222.21938	55.03807	1443.85425	173.00047	46.44478	1542.72778	-253.54845	777.09601	1456.31433	-247.05191	551.65460	1432.12390	-269.72141	403.36282	1374.91516	-247.39520	151.78899	1351.17517	-173.85495	52.14514	1263.52344	-277.01096	53.30648	1437.61987	-222.06984	54.26303	1529.31067	-15.43569	1781.64221	1463.18921	53.79483	1717.01025	1591.71228	71.23548	1656.10730	1414.37207	-68.36816	1704.35095	1581.10217	-76.97633	1638.04651	1409.09912	
168	1.392	15.59601	1103.36011	1285.34668	110.00336	1009.93005	1563.00037	111.75922	1069.81689	1286.14966	-160.07420	1030.18384	1532.56921	-112.31750	1069.63025	1270.11633	18.65511	1276.94067	1279.84509	18.53774	1411.90625	1284.11963	8.32327	1529.97314	1338.31836	-65.47984	1197.45068	1279.17700	147.69099	1356.72046	1288.77344	19.25842	1374.54724	1594.03503	-29.05925	1401.79858	1581.76086	101.79118	1451.38123	1567.66858	-99.93336	1450.33582	1558.65356	165.96498	1544.38940	1401.53479	338.35831	1521.05957	1438.96777	491.26337	1499.53955	1409.02856	598.90149	1492.48352	1459.72485	735.01837	1474.86792	1482.34839	790.35944	1420.32629	1448.00244	760.30859	1452.70923	1556.91260	793.26611	1471.56909	1488.44092	-165.32190	1553.43579	1432.80408	-343.34149	1504.69446	1412.02698	-445.90967	1488.45801	1397.30896	-595.83966	1473.18066	1440.29944	-711.09637	1457.26843	1452.72961	-775.51178	1408.44116	1429.23523	-756.31195	1453.21838	1528.22449	-784.84314	1459.36096	1462.32666	215.12080	737.55664	1466.98193	204.25916	578.20154	1416.32214	225.77502	336.88770	1348.14209	201.41406	147.80400	1340.01416	133.22034	51.21134	1270.10327	222.14865	55.14495	1443.90466	172.92720	46.42630	1542.70557	-253.58214	776.94031	1456.41980	-247.05191	551.65460	1432.12390	-269.76068	403.46930	1375.05432	-247.36140	151.67992	1351.33716	-173.79170	52.06778	1263.64050	-276.98892	53.35953	1437.58960	-222.01421	54.28273	1529.16980	-15.33184	1781.68921	1463.13977	53.84332	1716.95007	1591.68579	71.31062	1656.03577	1414.45728	-68.35208	1704.30566	1581.03162	-77.15253	1638.22693	1409.03491	
169	1.400	15.38735	1103.38647	1285.24304	109.99492	1009.90814	1563.06982	111.89679	1069.95605	1286.15796	-160.23416	1030.09766	1532.62671	-112.36973	1069.74902	1270.11230	18.62304	1276.89893	1279.74268	18.27331	1411.91211	1284.12341	8.38076	1529.97400	1338.33472	-65.48438	1197.54346	1279.25598	147.44315	1356.65845	1288.76294	19.25842	1374.54724	1594.03503	-29.06052	1401.85522	1581.85327	101.58121	1451.36401	1567.72729	-99.93336	1450.33582	1558.65356	165.92006	1544.38550	1401.52429	338.25806	1521.31726	1439.04773	490.98389	1499.70386	1408.82532	598.88550	1492.58350	1459.80444	735.00684	1475.16663	1482.46765	790.48944	1420.50806	1448.03955	760.35510	1453.13025	1557.07703	793.26971	1471.90527	1488.49438	-165.30795	1553.49365	1432.85022	-343.34149	1504.69446	1412.02698	-445.96191	1488.41479	1397.27942	-596.00427	1473.32068	1440.31567	-711.23102	1457.29297	1452.84399	-775.63776	1408.58643	1429.34790	-756.25507	1453.24817	1528.30286	-784.87262	1459.43262	1462.30383	214.94803	737.58514	1466.69897	204.27122	578.31940	1416.48438	225.87108	336.93820	1348.12134	201.18747	147.60593	1340.03442	133.22304	51.13820	1270.02271	222.10332	55.02583	1444.06641	173.00047	46.44478	1542.72778	-253.56570	776.85846	1456.31433	-247.06558	551.60626	1432.11450	-269.75464	403.40921	1375.11963	-247.30873	151.56419	1351.49304	-173.85464	52.06982	1263.61108	-276.98892	53.35953	1437.58960	-222.06984	54.26303	1529.31067	-15.42379	1781.66199	1463.16956	53.88523	1716.89978	1591.67871	71.23548	1656.10730	1414.37207	-68.46267	1704.28235	1581.04211	-77.15253	1638.22693	1409.03491	
